<mxfile host="app.diagrams.net" modified="2023-09-11T04:47:21.629Z" agent="Mozilla/5.0 (Windows NT 10.0; Win64; x64) AppleWebKit/537.36 (KHTML, like Gecko) Chrome/116.0.0.0 Safari/537.36" etag="FQFsXAbX2SokEMiASWVl" version="21.7.1" type="github">
  <diagram name="PÃ¡gina-1" id="mq_W6YMAJ89QtCMndp8d">
    <mxGraphModel dx="1080" dy="589" grid="1" gridSize="10" guides="1" tooltips="1" connect="1" arrows="1" fold="1" page="1" pageScale="1" pageWidth="1169" pageHeight="827" math="0" shadow="0">
      <root>
        <mxCell id="0" />
        <mxCell id="1" parent="0" />
        <mxCell id="NRLSHMz_EGcBUlTzmc5c-1" value="PROBLEMA DE INVESTIGACION" style="rounded=1;whiteSpace=wrap;html=1;" vertex="1" parent="1">
          <mxGeometry x="120" y="60" width="180" height="80" as="geometry" />
        </mxCell>
      </root>
    </mxGraphModel>
  </diagram>
</mxfile>
